<svg xmlns="http://www.w3.org/2000/svg" xmlns:xlink="http://www.w3.org/1999/xlink" version="1.1" id="mountains_1_" x="0px" y="0px" viewBox="0 0 100 100" enable-background="new 0 0 100 100" xml:space="preserve" height="100px" width="100px">
<path id="mountains" fill="#000000" d="M95.13,75.32L70.54,38.07c-0.08-0.11-0.16-0.21-0.26-0.31c-0.08-0.09-0.17-0.16-0.27-0.23  c-0.01-0.01-0.03-0.02-0.04-0.03c-0.02-0.01-0.04-0.03-0.06-0.03c-0.06-0.04-0.13-0.08-0.19-0.11c-0.06-0.03-0.12-0.05-0.18-0.07  s-0.13-0.04-0.2-0.06c-0.07-0.02-0.14-0.03-0.2-0.04c-0.04-0.01-0.08-0.01-0.12-0.01c-0.02-0.01-0.04-0.01-0.06-0.01h-0.13  c-0.08,0-0.15,0.01-0.23,0.02c-0.07,0.01-0.14,0.02-0.2,0.04c-0.07,0.02-0.13,0.04-0.19,0.06H68.2c-0.07,0.02-0.13,0.05-0.18,0.07  c-0.06,0.03-0.12,0.06-0.18,0.11c-0.06,0.03-0.12,0.07-0.18,0.12c-0.05,0.03-0.09,0.06-0.13,0.1c-0.04,0.03-0.07,0.07-0.11,0.12  c-0.03,0.03-0.06,0.05-0.08,0.08c-0.04,0.04-0.07,0.09-0.11,0.14c-0.01,0.01-0.02,0.03-0.03,0.04l-8.68,13.14l-6.79-10.28  c-0.05-0.08-0.1-0.16-0.16-0.24L41.42,25.32l-0.1-0.16c-0.05-0.07-0.1-0.14-0.16-0.21c-0.05-0.06-0.11-0.12-0.18-0.18  c-0.06-0.05-0.12-0.1-0.19-0.15c-0.03-0.02-0.06-0.04-0.1-0.06c-0.06-0.04-0.13-0.08-0.19-0.11c-0.05-0.02-0.11-0.05-0.18-0.07  c-0.06-0.02-0.13-0.04-0.2-0.06c-0.06-0.02-0.13-0.03-0.2-0.04c-0.08-0.01-0.15-0.02-0.23-0.02h-0.08c-0.08,0-0.15,0.01-0.23,0.02  c-0.06,0.01-0.13,0.02-0.2,0.04c-0.07,0.02-0.14,0.04-0.2,0.06c-0.06,0.02-0.12,0.04-0.18,0.07c-0.06,0.03-0.12,0.06-0.18,0.11  c-0.02,0-0.05,0.02-0.07,0.03c-0.23,0.15-0.42,0.35-0.57,0.57l-14.72,22.3L4.86,75.32c-0.61,0.92-0.35,2.16,0.57,2.77  c0.34,0.23,0.72,0.33,1.1,0.33c0.65,0,1.29-0.31,1.67-0.9l17.34-26.26l4.87,2.6c0.3,0.16,0.62,0.24,0.94,0.24  c0.62,0,1.22-0.29,1.61-0.81l4.19-5.67l5.67,3.72c0.87,0.57,2.03,0.38,2.67-0.44l4.37-5.55l7.02,10.63L71.1,77.52  c0.39,0.59,1.02,0.9,1.67,0.9c0.38,0,0.77-0.1,1.1-0.33c0.93-0.61,1.18-1.85,0.57-2.77L60.92,54.84l7.95-12.04L91.8,77.52  c0.38,0.59,1.02,0.9,1.67,0.9c0.37,0,0.76-0.1,1.1-0.33C95.49,77.48,95.74,76.24,95.13,75.32z M43.48,46.99l-5.72-3.75  c-0.88-0.58-2.07-0.37-2.7,0.49l-4.29,5.79l-3.02-1.61l11.9-18.02l7.89,11.94L43.48,46.99z"/>
</svg>