<?xml version="1.0" encoding="utf-8"?>
<!-- Generator: Adobe Illustrator 16.0.0, SVG Export Plug-In . SVG Version: 6.00 Build 0)  -->
<!DOCTYPE svg PUBLIC "-//W3C//DTD SVG 1.1//EN" "http://www.w3.org/Graphics/SVG/1.1/DTD/svg11.dtd">
<svg version="1.1" id="Layer_1" xmlns="http://www.w3.org/2000/svg" xmlns:xlink="http://www.w3.org/1999/xlink" x="0px" y="0px"
	 width="100px" height="95.014px" viewBox="-24.9 -20.955 100 95.014" enable-background="new -24.9 -20.955 100 95.014"
	 xml:space="preserve">
<path d="M49.816,9.364c0,5.021-4.083,9.103-9.101,9.103c-5.022,0-9.1-4.082-9.1-9.103c0-0.02,0.006-0.037,0.006-0.058l-4.135-0.002
	c0,0.021-0.007,0.041-0.007,0.06c0,7.299,5.937,13.238,13.237,13.238c7.298,0,13.236-5.939,13.236-13.238
	c0-0.016-0.004-0.031-0.004-0.045l-4.136-0.002C49.81,9.332,49.816,9.348,49.816,9.364z"/>
<path d="M34.094,9.364c0,3.651,2.971,6.62,6.62,6.62c3.651,0,6.62-2.971,6.62-6.62c0-0.016-0.008-0.033-0.008-0.048L34.099,9.307
	C34.101,9.328,34.094,9.344,34.094,9.364z"/>
<path d="M40.714,29.17c10.805,0,19.605-8.702,19.79-19.464c-1.204-0.247-2.472-0.389-3.801-0.389h-0.274
	c0,0.016,0.002,0.029,0.002,0.045c0,8.668-7.048,15.721-15.717,15.721c-8.668,0-15.72-7.052-15.72-15.721
	c0-0.021,0.002-0.039,0.004-0.062h-0.782c-1.136,0-2.233,0.119-3.295,0.315C21.056,20.421,29.877,29.17,40.714,29.17z"/>
<circle cx="40.449" cy="-7.332" r="13.623"/>
<path d="M63.762,67.524c0,8.713,11.361,8.713,11.336,0V35.004H63.762V67.524z"/>
<path d="M62.846,10.354c-0.525,11.771-10.232,21.191-22.131,21.191c-11.946,0-21.69-9.498-22.142-21.331
	c-7.28,2.43-12.203,9.486-12.203,17.894v21.294H-4.667V14.027h7.793V9.259h-8.521L1.684-3.931L-6.84-19.178l-8.523,15.248
	l7.078,13.189h-8.519v4.768h7.792v35.375h-9.626c-8.347,0-8.347,11.425,0,11.425h9.628v13.026h4.344V60.826h16.718v-0.035
	c2.87,0.02,5.75-2.14,5.75-6.481V29.3h3.638L21.432,73.85h38.751L60.201,29.3h3.563v0.006H75.1v-0.934
	C75.098,20.645,70.496,13.05,62.846,10.354z M40.502,62.267c-1.451,0-2.638-1.177-2.638-2.628c0-1.447,1.187-2.622,2.638-2.622
	c1.449,0,2.627,1.177,2.627,2.622C43.129,61.093,41.951,62.267,40.502,62.267z"/>
</svg>
