<svg xmlns="http://www.w3.org/2000/svg" xmlns:xlink="http://www.w3.org/1999/xlink" version="1.1" id="Layer_1" x="0px" y="0px" width="90px" height="90px" viewBox="0 0 90 90" enable-background="new 0 0 90 90" xml:space="preserve">
<g>
	<path fill="#000000" d="M66.62,86.784L26.4,86.745c-3.975-1.15-4.761-4.614-4.622-6.285l-0.003-54.853   C18.472,19.63,19.676,15.6,19.73,15.43l0.073-0.173c0.656-1.225,2.175-2.302,2.619-2.599c1.864-1.99,2.459-4.838,2.536-5.24   c0.168-2.724,2.599-3.769,3.872-3.941l0.134-0.009h35.821c2.937,0.057,3.91,2.526,4.03,3.893c0.618,2.842,2.089,4.81,2.525,5.347   c2.272,1.066,2.64,2.566,2.675,2.739c0.952,4.518-1.401,9.053-2.04,10.173l-0.029,55.035c0.155,1.66-0.251,3.105-1.21,4.206   c-1.554,1.784-3.989,1.918-4.092,1.923L66.62,86.784z M26.825,84.784h39.739c0.186-0.015,1.745-0.172,2.674-1.248   c0.579-0.672,0.819-1.611,0.712-2.792l0.025-55.682l0.149-0.242c0.029-0.046,2.839-4.663,1.933-8.968l0,0   c-0.002,0-0.247-0.766-1.731-1.408l-0.198-0.086l-0.146-0.161c-0.094-0.104-2.31-2.586-3.138-6.485l-0.02-0.142   c-0.027-0.339-0.256-2.067-2.06-2.103H29.042c-0.369,0.066-2.014,0.454-2.091,2.113l-0.013,0.118   c-0.026,0.156-0.665,3.848-3.152,6.425l-0.178,0.146c-0.57,0.368-1.583,1.174-1.99,1.839c-0.127,0.556-0.72,3.904,2.026,8.743   l0.13,0.229v55.46C23.749,80.943,23.644,83.787,26.825,84.784z"/>
</g>
<g>
	<path fill="#000000" d="M38.523,39.008c-9.876,0-16.367-12.667-16.642-13.212l1.786-0.9c0.062,0.124,6.347,12.375,15.188,12.106   l18.056,0.004c0.723-0.154,7.603-1.874,13.184-12.138l1.758,0.955C65.476,37.553,57.5,38.941,57.163,38.995l-0.156,0.012   l-18.12-0.005C38.766,39.006,38.644,39.008,38.523,39.008z"/>
</g>
<g>
	<path fill="#000000" d="M50.301,4.322c-1.128-1.319-2.312-1.972-3.496-1.93c-1.931,0.062-3.321,1.886-3.335,1.905l-0.8-0.601   c0.068-0.091,1.697-2.227,4.103-2.304c1.509-0.039,2.952,0.718,4.288,2.279L50.301,4.322z"/>
</g>
<g>
	<path fill="#000000" d="M45.457,4.821l-0.708-0.706c0.04-0.04,0.994-1.005,2.23-0.952c0.714,0.018,1.362,0.344,1.926,0.97   L48.16,4.802c-0.375-0.417-0.769-0.626-1.201-0.639C46.133,4.126,45.464,4.815,45.457,4.821z"/>
</g>
<g>
	<g>
		<path fill="#000000" d="M63.867,80.833l-33.243-0.035c-3.309-0.9-3.738-3.76-3.498-5.235v-23.6l2.377-4.953h36.169l2.049,4.897    v24.915c-0.044,2.739-2.494,3.813-3.783,4L63.867,80.833z M31.027,78.833h32.682c0.388-0.074,1.987-0.473,2.013-2.027V52.31    l-1.381-3.3H30.763l-1.636,3.408l-0.018,23.42C29.042,76.22,28.819,78.161,31.027,78.833z"/>
	</g>
	<g>
		<g>
			<path fill="#000000" d="M44.618,58.992c-8.615,0-14.144-1.361-16.45-4.054c-1.248-1.458-1.051-2.78-1.025-2.927l1.968,0.357     l-0.984-0.179l0.989,0.144c-0.002,0.025-0.055,0.632,0.664,1.408c1.235,1.333,5.104,3.536,17.048,3.221l0.051,2     C46.104,58.982,45.349,58.992,44.618,58.992z"/>
		</g>
		<g>
			<path fill="#000000" d="M48.679,58.992c-0.801,0-1.625-0.01-2.476-0.029l0.047-2c13.67,0.32,17.763-2.055,18.975-3.495     c0.511-0.607,0.504-1.079,0.504-1.083l1.961-0.389c0.027,0.136,0.231,1.372-0.935,2.759     C64.39,57.569,58.312,58.992,48.679,58.992z"/>
		</g>
	</g>
</g>
<g>
	<polygon fill="#000000" points="38.33,12.646 34.985,12.646 34.985,5.542 38.33,5.542 38.33,6.112  "/>
	<path fill="#000000" d="M38.83,12.72h-4.345V5.468h4.345V12.72z M35.485,12.572h2.345V5.616h-2.345V12.572z"/>
</g>
<g>
	<polygon fill="#000000" points="58.439,13.004 55.094,13.004 55.094,5.375 58.439,5.375 58.439,5.987  "/>
	<path fill="#000000" d="M58.939,13.083h-4.346V5.296h4.346V13.083z M55.594,12.924h2.346V5.455h-2.346V12.924z"/>
</g>
<g>
	<path fill="#000000" d="M39.918,53.947h-6.523c-0.737,0-1.336-0.601-1.336-1.338c0-0.736,0.6-1.335,1.336-1.335h6.523   c0.737,0,1.336,0.599,1.336,1.335C41.254,53.347,40.655,53.947,39.918,53.947z M33.395,52.274c-0.186,0-0.336,0.15-0.336,0.335   c0,0.187,0.151,0.338,0.336,0.338h6.523c0.185,0,0.336-0.151,0.336-0.338c0-0.185-0.151-0.335-0.336-0.335H33.395z"/>
</g>
<g>
	<path fill="#000000" d="M60.069,53.947h-6.522c-0.737,0-1.337-0.601-1.337-1.338c0-0.736,0.6-1.335,1.337-1.335h6.522   c0.737,0,1.337,0.599,1.337,1.335C61.406,53.347,60.807,53.947,60.069,53.947z M53.547,52.274c-0.186,0-0.337,0.15-0.337,0.335   c0,0.187,0.151,0.338,0.337,0.338h6.522c0.186,0,0.337-0.151,0.337-0.338c0-0.185-0.151-0.335-0.337-0.335H53.547z"/>
</g>
<g>
	<rect x="34.985" y="54.068" fill="#000000" width="3.345" height="6.373"/>
	<path fill="#000000" d="M38.83,60.562h-4.345v-6.615h4.345V60.562z M35.485,60.321h2.345v-6.133h-2.345V60.321z"/>
</g>
<g>
	<rect x="55.135" y="54.068" fill="#000000" width="3.346" height="6.373"/>
	<path fill="#000000" d="M58.98,60.562h-4.346v-6.615h4.346V60.562z M55.635,60.321h2.346v-6.133h-2.346V60.321z"/>
</g>
<polygon fill="none" points="34.955,45.6 34.955,45.598 34.955,45.598 "/>
<path fill="#000000" d="M58.471,39.982l-3.311,0.002c0,0-0.084-0.012-0.205-0.012c-0.504,0-0.863,0.202-0.986,0.554l-0.014,4.628  c0.01,0.284,0.262,0.819,1.141,0.819h3.379c0.44-0.006,1.186-0.193,1.186-0.85v-4.412C59.66,40.682,59.646,39.982,58.471,39.982z   M55.096,45.724v-0.002v-0.248c-0.594,0-0.639-0.309-0.641-0.328v-4.487c0.086-0.161,0.346-0.186,0.5-0.186  c0.076,0,0.131,0.007,0.17,0.01h3.346c0.52,0,0.68,0.159,0.689,0.229v4.412c0,0.322-0.687,0.35-0.689,0.35h-3.35l-0.025,0.248  V45.724z"/>
<path fill="#000000" d="M58.721,41.028h-1.828v0.735l-0.134-0.002l0.011-0.733h-1.895v3.95h3.846V41.028z M58.221,44.478h-2.846  v-2.949h0.887l-0.01,0.728l1.141,0.011v-0.738h0.828V44.478z"/>
<path fill="#000000" d="M58.471,60.313l-3.311,0.003c0,0-0.084-0.013-0.205-0.013c-0.504,0-0.863,0.202-0.986,0.554l-0.014,4.628  c0.01,0.284,0.262,0.819,1.141,0.819h3.379c0.44-0.006,1.186-0.193,1.186-0.85v-4.412C59.66,61.014,59.646,60.313,58.471,60.313z   M55.096,66.055v-0.002v-0.248c-0.594,0-0.639-0.309-0.641-0.328V60.99c0.086-0.162,0.346-0.187,0.5-0.187  c0.076,0,0.131,0.007,0.17,0.01h3.346c0.52,0,0.68,0.159,0.689,0.229v4.412c0,0.322-0.687,0.35-0.689,0.35h-3.35l-0.025,0.248  V66.055z"/>
<path fill="#000000" d="M58.721,61.359h-1.828v0.734l-0.134-0.002l0.011-0.732h-1.895v3.949h3.846V61.359z M58.221,64.809h-2.846  v-2.949h0.887l-0.01,0.728l1.141,0.011v-0.738h0.828V64.809z"/>
<path fill="#000000" d="M38.33,60.313l-3.311,0.003c0,0-0.084-0.013-0.205-0.013c-0.504,0-0.863,0.202-0.986,0.554l-0.014,4.628  c0.01,0.284,0.262,0.819,1.141,0.819h3.379c0.44-0.006,1.186-0.193,1.186-0.85v-4.412C39.52,61.014,39.506,60.313,38.33,60.313z   M34.955,66.055v-0.002v-0.248c-0.594,0-0.639-0.309-0.641-0.328V60.99c0.086-0.162,0.346-0.187,0.5-0.187  c0.076,0,0.131,0.007,0.17,0.01h3.346c0.52,0,0.68,0.159,0.689,0.229v4.412c0,0.322-0.687,0.35-0.689,0.35h-3.35l-0.025,0.248  V66.055z"/>
<path fill="#000000" d="M38.58,61.359h-1.828v0.734l-0.134-0.002l0.011-0.732h-1.895v3.949h3.846V61.359z M38.08,64.809h-2.846  v-2.949h0.887l-0.01,0.728l1.141,0.011v-0.738h0.828V64.809z"/>
<g>
	<rect x="34.994" y="66.08" fill="#000000" width="3.346" height="12.985"/>
	<path fill="#000000" d="M38.84,79.312h-4.346V65.833h4.346V79.312z M35.494,78.821h2.346V66.325h-2.346V78.821z"/>
</g>
<g>
	<rect x="55.115" y="45.949" fill="#000000" width="3.346" height="5.227"/>
	<path fill="#000000" d="M58.961,51.274h-4.346V45.85h4.346V51.274z M55.615,51.076h2.346v-5.028h-2.346V51.076z"/>
</g>
<g>
	<rect x="34.983" y="45.614" fill="#000000" width="3.346" height="5.555"/>
	<path fill="#000000" d="M38.829,51.274h-4.346v-5.767h4.346V51.274z M35.483,51.063h2.346v-5.346h-2.346V51.063z"/>
</g>
<g>
	<path fill="#000000" d="M60.028,33.275h-6.522c-0.737,0-1.337-0.601-1.337-1.338c0-0.736,0.6-1.335,1.337-1.335h6.522   c0.737,0,1.337,0.599,1.337,1.335C61.365,32.675,60.766,33.275,60.028,33.275z M53.506,31.603c-0.186,0-0.337,0.15-0.337,0.335   c0,0.187,0.151,0.338,0.337,0.338h6.522c0.186,0,0.337-0.151,0.337-0.338c0-0.185-0.151-0.335-0.337-0.335H53.506z"/>
</g>
<g>
	<path fill="#000000" d="M39.929,33.275h-6.522c-0.737,0-1.337-0.601-1.337-1.338c0-0.736,0.6-1.335,1.337-1.335h6.522   c0.737,0,1.337,0.599,1.337,1.335C41.266,32.675,40.666,33.275,39.929,33.275z M33.406,31.603c-0.186,0-0.337,0.15-0.337,0.335   c0,0.187,0.151,0.338,0.337,0.338h6.522c0.186,0,0.337-0.151,0.337-0.338c0-0.185-0.151-0.335-0.337-0.335H33.406z"/>
</g>
<g>
	<path fill="#000000" d="M60.028,15.393h-6.522c-0.737,0-1.337-0.601-1.337-1.338c0-0.736,0.6-1.335,1.337-1.335h6.522   c0.737,0,1.337,0.599,1.337,1.335C61.365,14.792,60.766,15.393,60.028,15.393z M53.506,13.72c-0.186,0-0.337,0.15-0.337,0.335   c0,0.187,0.151,0.338,0.337,0.338h6.522c0.186,0,0.337-0.151,0.337-0.338c0-0.185-0.151-0.335-0.337-0.335H53.506z"/>
</g>
<g>
	<path fill="#000000" d="M39.929,15.393h-6.522c-0.737,0-1.337-0.601-1.337-1.338c0-0.736,0.6-1.335,1.337-1.335h6.522   c0.737,0,1.337,0.599,1.337,1.335C41.266,14.792,40.666,15.393,39.929,15.393z M33.406,13.72c-0.186,0-0.337,0.15-0.337,0.335   c0,0.187,0.151,0.338,0.337,0.338h6.522c0.186,0,0.337-0.151,0.337-0.338c0-0.185-0.151-0.335-0.337-0.335H33.406z"/>
</g>
<g>
	<polygon fill="#000000" points="38.33,30.625 34.985,30.625 34.985,15.552 38.33,15.552 38.33,16.76  "/>
	<path fill="#000000" d="M38.83,30.784h-4.345V15.393h4.345V30.784z M35.485,30.469h2.345V15.708h-2.345V30.469z"/>
</g>
<g>
	<polygon fill="#000000" points="38.33,12.646 34.985,12.646 34.985,5.542 38.33,5.542 38.33,6.112  "/>
	<path fill="#000000" d="M38.83,12.72h-4.345V5.468h4.345V12.72z M35.485,12.572h2.345V5.616h-2.345V12.572z"/>
</g>
<g>
	<polygon fill="#000000" points="58.439,30.444 55.094,30.444 55.094,15.37 58.439,15.37 58.439,16.578  "/>
	<path fill="#000000" d="M58.939,30.603h-4.346V15.211h4.346V30.603z M55.594,30.288h2.346V15.526h-2.346V30.288z"/>
</g>
<g>
	<polygon fill="#000000" points="38.329,40.048 34.984,40.048 34.984,33.135 38.329,33.135 38.329,33.689  "/>
	<path fill="#000000" d="M38.829,40.121h-4.345v-7.058h4.345V40.121z M35.484,39.976h2.345v-6.769h-2.345V39.976z"/>
</g>
<g>
	<polygon fill="#000000" points="58.439,40.206 55.094,40.206 55.094,33.281 58.439,33.281 58.439,33.836  "/>
	<path fill="#000000" d="M58.939,40.279h-4.346v-7.07h4.346V40.279z M55.594,40.134h2.346v-6.781h-2.346V40.134z"/>
</g>
<g>
	<rect x="55.125" y="66.08" fill="#000000" width="3.346" height="12.985"/>
	<path fill="#000000" d="M58.971,79.312h-4.346V65.833h4.346V79.312z M55.625,78.821h2.346V66.325h-2.346V78.821z"/>
</g>
<path fill="#000000" d="M38.319,40.012l-3.311,0.002c0,0-0.084-0.012-0.205-0.012c-0.504,0-0.863,0.202-0.986,0.554l-0.014,4.628  c0.01,0.284,0.262,0.819,1.141,0.819h3.379c0.44-0.006,1.186-0.193,1.186-0.85v-4.412C39.509,40.711,39.495,40.012,38.319,40.012z   M34.944,45.753v-0.002v-0.248c-0.594,0-0.639-0.309-0.641-0.328v-4.487c0.086-0.161,0.346-0.186,0.5-0.186  c0.076,0,0.131,0.007,0.17,0.01h3.346c0.52,0,0.68,0.159,0.689,0.229v4.412c0,0.322-0.687,0.35-0.689,0.35h-3.35l-0.025,0.248  V45.753z"/>
<path fill="#000000" d="M38.569,41.057h-1.828v0.735l-0.134-0.002l0.011-0.733h-1.895v3.95h3.846V41.057z M38.069,44.507h-2.846  v-2.949h0.887l-0.01,0.728l1.141,0.011v-0.738h0.828V44.507z"/>
<g>
	<path fill="#000000" d="M50.006,68.041h-6.301v-5.466h6.301V68.041z M44.705,67.041h4.301v-3.466h-4.301V67.041z"/>
</g>
</svg>